REM MD5 31f186b339829b51fb7610ef56e57c5e
FILE "Hyper PlayStation Re-mix 1998 No. 12 (Japan).bin" BINARY
  TRACK 01 MODE2/2352
    INDEX 01 00:00:00
  TRACK 02 AUDIO
    INDEX 00 41:35:58
    INDEX 01 41:38:58
  TRACK 03 AUDIO
    INDEX 00 41:43:33
    INDEX 01 41:46:33
  TRACK 04 AUDIO
    INDEX 00 44:17:01
    INDEX 01 44:21:01
REM LEADOUT 48:46:45
